# xmcd
#
# Track frame offsets: 
#        150
#        11859
#        31298
#        48877
#        67536
#        77360
#        84389
#        112636
#        119687
#        135025
#        155792
#        182739
#        194024
#        230529
#        241276
#
# Disc length: 3528 seconds
#
# Revision: 0
# Processed by: cddbd v1.5.2PL0 Copyright (c) Steve Scherf et al.
# Submitted via: ExactAudioCopy v0.99pb5
#
DISCID=b10dc60f
DTITLE=Seth Hoffman - Days Go By
DYEAR=2001
DGENRE=Acoustic
TTITLE0=Purple Flowers
TTITLE1=And The Lord Said
TTITLE2=Days Go By
TTITLE3=Redwood Memories
TTITLE4=Dancin' With The Devil
TTITLE5=Facing The Night
TTITLE6=Gingerbread Porcupine
TTITLE7=Been Looking
TTITLE8=Start My Day
TTITLE9=Joanne
TTITLE10=Shine
TTITLE11=The School Song
TTITLE12=Need To Be Loved
TTITLE13=Little Ditty
TTITLE14=Unknown
EXTD=
EXTT0=
EXTT1=
EXTT2=
EXTT3=
EXTT4=
EXTT5=
EXTT6=
EXTT7=
EXTT8=
EXTT9=
EXTT10=
EXTT11=
EXTT12=
EXTT13=
EXTT14=
PLAYORDER=
